<?xml version="1.0" encoding="UTF-8" standalone="no"?>
<svg
   xmlns:dc="http://purl.org/dc/elements/1.1/"
   xmlns:cc="http://creativecommons.org/ns#"
   xmlns:rdf="http://www.w3.org/1999/02/22-rdf-syntax-ns#"
   xmlns:svg="http://www.w3.org/2000/svg"
   xmlns="http://www.w3.org/2000/svg"
   width="264.58334mm"
   height="97.763367mm"
   viewBox="0 0 264.58334 97.763366"
   version="1.1"
   id="svg1798">
  <title
     id="title828">The Whook's logo</title>
  <defs
     id="defs1792" />
  <metadata
     id="metadata1795">
    <rdf:RDF>
      <cc:Work
         rdf:about="">
        <dc:format>image/svg+xml</dc:format>
        <dc:type
           rdf:resource="http://purl.org/dc/dcmitype/StillImage" />
        <dc:title>The Whook's logo</dc:title>
        <dc:date>2023</dc:date>
        <dc:creator>
          <cc:Agent>
            <dc:title>Nicolas Froidure</dc:title>
          </cc:Agent>
        </dc:creator>
      </cc:Work>
    </rdf:RDF>
  </metadata>
  <g
     id="layer1"
     transform="translate(-16.671064,-187.76772)">
    <rect
       style="opacity:1;vector-effect:none;fill:#aad400;fill-opacity:1;stroke:none;stroke-width:3.47500038;stroke-linecap:butt;stroke-linejoin:miter;stroke-miterlimit:4;stroke-dasharray:none;stroke-dashoffset:0;stroke-opacity:0.16666667"
       id="rect1808"
       width="101.08039"
       height="85.928154"
       x="136.10562"
       y="199.60294" />
    <g
       aria-label="Whook"
       transform="matrix(1.8791454,0,0,1.8791454,-1.0410075,-417.87841)"
       style="font-style:normal;font-variant:normal;font-weight:normal;font-stretch:normal;font-size:42.66666794px;line-height:125%;font-family:Tofino;-inkscape-font-specification:Tofino;letter-spacing:0px;word-spacing:0px;fill:#000000;fill-opacity:1;stroke:none;stroke-width:0.14079982px;stroke-linecap:butt;stroke-linejoin:miter;stroke-opacity:1"
       id="flowRoot1800">
      <path
         d="m 31.8256,341.61004 q 0.512,1.74934 1.109333,3.968 0.64,2.176 1.322667,4.52267 0.725333,2.34667 1.450666,4.69333 0.725334,2.34667 1.408,4.352 0.554667,-2.176 1.109334,-4.736 0.597333,-2.56 1.109333,-5.29066 0.512,-2.73067 0.981334,-5.41867 0.512,-2.73067 0.938666,-5.248 h 6.912 q -1.493333,7.424 -3.456,15.06133 -1.92,7.63734 -4.181333,14.50667 h -6.101334 q -1.493333,-4.096 -2.901333,-8.576 -1.408,-4.52267 -2.773333,-9.04533 -1.365334,4.52266 -2.730667,9.04533 -1.365334,4.48 -2.858667,8.576 h -6.101333 q -2.261334,-6.86933 -4.224001,-14.50667 -1.92,-7.63733 -3.413333,-15.06133 h 7.210667 q 0.426667,2.51733 0.938667,5.248 0.512,2.688 1.066666,5.41867 0.554667,2.73066 1.109334,5.29066 0.597333,2.56 1.194666,4.736 0.768,-2.09066 1.493334,-4.43733 0.725333,-2.34667 1.408,-4.69333 0.682666,-2.34667 1.237333,-4.52267 0.597333,-2.176 1.066667,-3.88267 z"
         style="font-style:normal;font-variant:normal;font-weight:bold;font-stretch:normal;font-family:Ubuntu;-inkscape-font-specification:'Ubuntu Bold';stroke-width:0.14079982px"
         id="path1810" />
      <path
         d="m 52.00693,368.02071 v -32.08533 l 6.357334,-1.024 v 10.752 q 0.64,-0.21334 1.621333,-0.384 1.024,-0.21334 1.962667,-0.21334 2.730667,0 4.522667,0.768 1.834667,0.72534 2.901333,2.09067 1.109334,1.36533 1.536,3.24267 0.469334,1.87733 0.469334,4.18133 v 12.672 h -6.357334 v -11.904 q 0,-3.072 -0.810667,-4.352 -0.768,-1.28 -2.901333,-1.28 -0.853333,0 -1.621333,0.17067 -0.725334,0.128 -1.322667,0.29866 v 17.06667 z"
         style="font-style:normal;font-variant:normal;font-weight:bold;font-stretch:normal;font-family:Ubuntu;-inkscape-font-specification:'Ubuntu Bold';stroke-width:0.14079982px"
         id="path1812" />
      <path
         d="m 98.129546,356.75671 q 0,2.64533 -0.768,4.864 -0.768,2.176 -2.218666,3.75467 -1.450667,1.536 -3.498667,2.38933 -2.005334,0.85333 -4.522667,0.85333 -2.474667,0 -4.522667,-0.85333 -2.005333,-0.85333 -3.456,-2.38933 -1.450667,-1.57867 -2.261333,-3.75467 -0.810667,-2.21867 -0.810667,-4.864 0,-2.64533 0.810667,-4.82133 0.853333,-2.176 2.304,-3.712 1.493333,-1.536 3.498666,-2.38934 2.048001,-0.85333 4.437334,-0.85333 2.432,0 4.437333,0.85333 2.048,0.85334 3.498667,2.38934 1.450667,1.536 2.261334,3.712 0.810666,2.176 0.810666,4.82133 z m -6.485333,0 q 0,-2.944 -1.194667,-4.608 -1.152,-1.70667 -3.328,-1.70667 -2.176,0 -3.370667,1.70667 -1.194667,1.664 -1.194667,4.608 0,2.944 1.194667,4.69333 1.194667,1.70667 3.370667,1.70667 2.176,0 3.328,-1.70667 1.194667,-1.74933 1.194667,-4.69333 z"
         style="font-style:normal;font-variant:normal;font-weight:bold;font-stretch:normal;font-family:Ubuntu;-inkscape-font-specification:'Ubuntu Bold';stroke-width:0.14079982px"
         id="path1814" />
      <path
         d="m 124.02815,356.75671 q 0,2.64533 -0.768,4.864 -0.768,2.176 -2.21867,3.75467 -1.45066,1.536 -3.49866,2.38933 -2.00534,0.85333 -4.52267,0.85333 -2.47467,0 -4.52267,-0.85333 -2.00533,-0.85333 -3.456,-2.38933 -1.45066,-1.57867 -2.26133,-3.75467 -0.81067,-2.21867 -0.81067,-4.864 0,-2.64533 0.81067,-4.82133 0.85333,-2.176 2.304,-3.712 1.49333,-1.536 3.49867,-2.38934 2.048,-0.85333 4.43733,-0.85333 2.432,0 4.43733,0.85333 2.048,0.85334 3.49867,2.38934 1.45067,1.536 2.26133,3.712 0.81067,2.176 0.81067,4.82133 z m -6.48533,0 q 0,-2.944 -1.19467,-4.608 -1.152,-1.70667 -3.328,-1.70667 -2.176,0 -3.37067,1.70667 -1.19466,1.664 -1.19466,4.608 0,2.944 1.19466,4.69333 1.19467,1.70667 3.37067,1.70667 2.176,0 3.328,-1.70667 1.19467,-1.74933 1.19467,-4.69333 z"
         style="font-style:normal;font-variant:normal;font-weight:bold;font-stretch:normal;font-family:Ubuntu;-inkscape-font-specification:'Ubuntu Bold';stroke-width:0.14079982px"
         id="path1816" />
      <path
         d="m 135.29208,353.68471 q 0.93867,-1.024 1.92,-2.13333 1.024,-1.10934 1.96267,-2.176 0.93867,-1.10934 1.74933,-2.09067 0.85334,-0.98133 1.45067,-1.70667 h 7.552 q -2.26133,2.60267 -4.43733,4.992 -2.13334,2.34667 -4.69334,4.864 1.28,1.152 2.64534,2.77334 1.36533,1.57866 2.64533,3.28533 1.28,1.70667 2.34667,3.41333 1.06666,1.70667 1.792,3.11467 h -7.296 q -0.68267,-1.10933 -1.57867,-2.432 -0.85333,-1.36533 -1.83467,-2.688 -0.98133,-1.36533 -2.09066,-2.60267 -1.06667,-1.23733 -2.13334,-2.09066 v 9.81333 h -6.35733 v -32.08533 l 6.35733,-1.024 z"
         style="font-style:normal;font-variant:normal;font-weight:bold;font-stretch:normal;font-family:Ubuntu;-inkscape-font-specification:'Ubuntu Bold';stroke-width:0.14079982px"
         id="path1818" />
      <path
         style="font-style:normal;font-variant:normal;font-weight:bold;font-stretch:normal;font-family:Ubuntu;-inkscape-font-specification:'Ubuntu Bold';stroke-width:0.14079982px"
         d="m 98.129546,356.75671 q 0,2.64533 -0.768,4.864 -0.768,2.176 -2.218666,3.75467 -1.450667,1.536 -3.498667,2.38933 -2.005334,0.85333 -4.522667,0.85333 -2.474667,0 -4.522667,-0.85333 -2.005333,-0.85333 -3.456,-2.38933 -1.450667,-1.57867 -2.261333,-3.75467 -0.810667,-2.21867 -0.810667,-4.864 0,-2.64533 0.810667,-4.82133 0.853333,-2.176 2.304,-3.712 1.493333,-1.536 3.498666,-2.38934 2.048001,-0.85333 4.437334,-0.85333 2.432,0 4.437333,0.85333 2.048,0.85334 3.498667,2.38934 1.450667,1.536 2.261334,3.712 0.810666,2.176 0.810666,4.82133 z"
         id="path1827" />
      <path
         style="font-style:normal;font-variant:normal;font-weight:bold;font-stretch:normal;font-family:Ubuntu;-inkscape-font-specification:'Ubuntu Bold';fill:#ffffff;stroke-width:0.14079982px"
         d="m 91.644213,356.75671 q 0,-2.944 -1.194667,-4.608 -1.152,-1.70667 -3.328,-1.70667 -2.176,0 -3.370667,1.70667 -1.194667,1.664 -1.194667,4.608 0,2.944 1.194667,4.69333 1.194667,1.70667 3.370667,1.70667 2.176,0 3.328,-1.70667 1.194667,-1.74933 1.194667,-4.69333 z"
         id="path1821" />
      <path
         style="font-style:normal;font-variant:normal;font-weight:bold;font-stretch:normal;font-family:Ubuntu;-inkscape-font-specification:'Ubuntu Bold';stroke-width:0.14079982px"
         d="m 124.02815,356.75671 q 0,2.64533 -0.768,4.864 -0.768,2.176 -2.21867,3.75467 -1.45066,1.536 -3.49866,2.38933 -2.00534,0.85333 -4.52267,0.85333 -2.47467,0 -4.52267,-0.85333 -2.00533,-0.85333 -3.456,-2.38933 -1.45066,-1.57867 -2.26133,-3.75467 -0.81067,-2.21867 -0.81067,-4.864 0,-2.64533 0.81067,-4.82133 0.85333,-2.176 2.304,-3.712 1.49333,-1.536 3.49867,-2.38934 2.048,-0.85333 4.43733,-0.85333 2.432,0 4.43733,0.85333 2.048,0.85334 3.49867,2.38934 1.45067,1.536 2.26133,3.712 0.81067,2.176 0.81067,4.82133 z"
         id="path1831" />
      <path
         style="font-style:normal;font-variant:normal;font-weight:bold;font-stretch:normal;font-family:Ubuntu;-inkscape-font-specification:'Ubuntu Bold';fill:#ffffff;stroke-width:0.14079982px"
         d="m 117.54282,356.75671 q 0,-2.944 -1.19467,-4.608 -1.152,-1.70667 -3.328,-1.70667 -2.176,0 -3.37067,1.70667 -1.19466,1.664 -1.19466,4.608 0,2.944 1.19466,4.69333 1.19467,1.70667 3.37067,1.70667 2.176,0 3.328,-1.70667 1.19467,-1.74933 1.19467,-4.69333 z"
         id="path1823" />
    </g>
    <rect
       y="-199.60294"
       x="-237.18605"
       height="11.835213"
       width="101.08039"
       id="rect1833"
       style="opacity:1;vector-effect:none;fill:#000000;fill-opacity:1;stroke:none;stroke-width:3.47500038;stroke-linecap:butt;stroke-linejoin:miter;stroke-miterlimit:4;stroke-dasharray:none;stroke-dashoffset:0;stroke-opacity:0.16666667"
       transform="scale(-1)" />
  </g>
</svg>
