<?xml version="1.0" encoding="UTF-8" standalone="no"?>
<svg
   xmlns:dc="http://purl.org/dc/elements/1.1/"
   xmlns:cc="http://creativecommons.org/ns#"
   xmlns:rdf="http://www.w3.org/1999/02/22-rdf-syntax-ns#"
   xmlns:svg="http://www.w3.org/2000/svg"
   xmlns="http://www.w3.org/2000/svg"
   width="1000"
   height="370"
   viewBox="0 0 264.5833 97.895835"
   version="1.1"
   id="svg1798">
  <title
     id="title828">The Whook's logo</title>
  <defs
     id="defs1792" />
  <metadata
     id="metadata1795">
    <rdf:RDF>
      <cc:Work
         rdf:about="">
        <dc:format>image/svg+xml</dc:format>
        <dc:type
           rdf:resource="http://purl.org/dc/dcmitype/StillImage" />
        <dc:title>The Whook's logo</dc:title>
        <dc:date>2023</dc:date>
        <dc:creator>
          <cc:Agent>
            <dc:title>Nicolas Froidure</dc:title>
          </cc:Agent>
        </dc:creator>
      </cc:Work>
    </rdf:RDF>
  </metadata>
  <rect
     style="opacity:1;vector-effect:none;fill:#ffffff;fill-opacity:1;stroke:none;stroke-width:3.47500038;stroke-linecap:butt;stroke-linejoin:miter;stroke-miterlimit:4;stroke-dasharray:none;stroke-dashoffset:0;stroke-opacity:0.16666667"
     id="rect834"
     width="264.58334"
     height="97.895836"
     x="3.7683105e-07"
     y="1.916504e-05" />
  <rect
     y="19.769232"
     x="120.58936"
     height="67.60051"
     width="79.520912"
     id="rect1808"
     style="opacity:1;vector-effect:none;fill:#aad400;fill-opacity:1;stroke:none;stroke-width:3.47500038;stroke-linecap:butt;stroke-linejoin:miter;stroke-miterlimit:4;stroke-dasharray:none;stroke-dashoffset:0;stroke-opacity:0.16666667" />
  <path
     d="m 59.743896,39.007106 q 0.756912,2.586122 1.639974,5.86606 0.946139,3.216873 1.955354,6.686053 1.07229,3.46918 2.144581,6.938345 1.072291,3.469179 2.081504,6.433743 0.819988,-3.216871 1.639975,-7.001427 0.883062,-3.784555 1.639973,-7.821403 0.756912,-4.036863 1.450747,-8.010646 0.756911,-4.036864 1.38767,-7.758338 h 10.218298 q -2.207657,10.975209 -5.10915,22.265793 -2.838416,11.290599 -6.181438,21.445817 h -9.019857 q -2.207657,-6.055288 -4.289162,-12.678259 -2.081506,-6.686052 -4.099934,-13.37209 -2.01843,6.686038 -4.036859,13.37209 -2.018429,6.622971 -4.226087,12.678259 H 37.91963 Q 34.576605,67.895885 31.675113,56.605286 28.836697,45.314702 26.62904,34.339493 h 10.659831 q 0.630759,3.721474 1.38767,7.758338 0.75691,3.973783 1.576896,8.010646 0.819988,4.036848 1.639975,7.821403 0.883062,3.784556 1.766125,7.001427 1.135367,-3.090709 2.207658,-6.55989 1.07229,-3.469181 2.081505,-6.938345 1.009213,-3.469181 1.829201,-6.686052 0.883063,-3.216872 1.576897,-5.739914 z"
     style="font-style:normal;font-variant:normal;font-weight:bold;font-stretch:normal;font-size:42.66666794px;line-height:125%;font-family:Ubuntu;-inkscape-font-specification:'Ubuntu Bold';letter-spacing:0px;word-spacing:0px;fill:#000000;fill-opacity:1;stroke:none;stroke-width:0.26458335px;stroke-linecap:butt;stroke-linejoin:miter;stroke-opacity:1"
     id="path1810" />
  <path
     d="M 89.5788,78.051103 V 30.618019 l 9.398306,-1.513821 v 15.895129 q 0.946137,-0.315388 2.396884,-0.567683 1.51381,-0.315389 2.9015,-0.315389 4.03685,0 6.68603,1.135367 2.71228,1.0723 4.28917,3.090724 1.63998,2.018425 2.27074,4.793775 0.69383,2.775335 0.69383,6.181434 v 18.733548 h -9.39831 V 60.452921 q 0,-4.541465 -1.19844,-6.433742 -1.13538,-1.892277 -4.28918,-1.892277 -1.2615,0 -2.39687,0.252307 -1.072297,0.189229 -1.955354,0.441523 v 25.230371 z"
     style="font-style:normal;font-variant:normal;font-weight:bold;font-stretch:normal;font-size:42.66666794px;line-height:125%;font-family:Ubuntu;-inkscape-font-specification:'Ubuntu Bold';letter-spacing:0px;word-spacing:0px;fill:#000000;fill-opacity:1;stroke:none;stroke-width:0.26458335px;stroke-linecap:butt;stroke-linejoin:miter;stroke-opacity:1"
     id="path1812" />
  <path
     d="m 157.76378,61.399062 q 0,3.9107 -1.13537,7.190653 -1.13535,3.216872 -3.27994,5.550686 -2.14458,2.270733 -5.17223,3.532246 -2.96457,1.261513 -6.68605,1.261513 -3.6584,0 -6.68604,-1.261513 -2.96457,-1.261513 -5.10915,-3.532246 -2.14458,-2.333814 -3.34303,-5.550686 -1.19844,-3.279953 -1.19844,-7.190653 0,-3.910703 1.19844,-7.127575 1.26152,-3.216872 3.4061,-5.487604 2.20765,-2.270733 5.17223,-3.532261 3.02765,-1.261513 6.55989,-1.261513 3.59533,0 6.5599,1.261513 3.02765,1.261528 5.17223,3.532261 2.14458,2.270732 3.34302,5.487604 1.19844,3.216872 1.19844,7.127575 z m -9.58754,0 q 0,-4.352239 -1.76612,-6.8122 -1.70306,-2.523042 -4.91993,-2.523042 -3.21687,0 -4.983,2.523042 -1.76611,2.459961 -1.76611,6.8122 0,4.352238 1.76611,6.938345 1.76613,2.523041 4.983,2.523041 3.21687,0 4.91993,-2.523041 1.76612,-2.586107 1.76612,-6.938345 z"
     style="font-style:normal;font-variant:normal;font-weight:bold;font-stretch:normal;font-size:42.66666794px;line-height:125%;font-family:Ubuntu;-inkscape-font-specification:'Ubuntu Bold';letter-spacing:0px;word-spacing:0px;fill:#000000;fill-opacity:1;stroke:none;stroke-width:0.26458335px;stroke-linecap:butt;stroke-linejoin:miter;stroke-opacity:1"
     id="path1814" />
  <path
     d="m 196.05077,61.399062 q 0,3.9107 -1.13537,7.190653 -1.13537,3.216872 -3.27995,5.550686 -2.14457,2.270733 -5.17222,3.532246 -2.96458,1.261513 -6.68604,1.261513 -3.65842,0 -6.68605,-1.261513 -2.96457,-1.261513 -5.10915,-3.532246 -2.14458,-2.333814 -3.34302,-5.550686 -1.19845,-3.279953 -1.19845,-7.190653 0,-3.910703 1.19845,-7.127575 1.26151,-3.216872 3.4061,-5.487604 2.20765,-2.270733 5.17222,-3.532261 3.02765,-1.261513 6.5599,-1.261513 3.59532,0 6.55988,1.261513 3.02764,1.261528 5.17223,3.532261 2.14458,2.270732 3.34302,5.487604 1.19845,3.216872 1.19845,7.127575 z m -9.58754,0 q 0,-4.352239 -1.76612,-6.8122 -1.70306,-2.523042 -4.91992,-2.523042 -3.21688,0 -4.98302,2.523042 -1.7661,2.459961 -1.7661,6.8122 0,4.352238 1.7661,6.938345 1.76614,2.523041 4.98302,2.523041 3.21686,0 4.91992,-2.523041 1.76612,-2.586107 1.76612,-6.938345 z"
     style="font-style:normal;font-variant:normal;font-weight:bold;font-stretch:normal;font-size:42.66666794px;line-height:125%;font-family:Ubuntu;-inkscape-font-specification:'Ubuntu Bold';letter-spacing:0px;word-spacing:0px;fill:#000000;fill-opacity:1;stroke:none;stroke-width:0.26458335px;stroke-linecap:butt;stroke-linejoin:miter;stroke-opacity:1"
     id="path1816" />
  <path
     d="m 212.70271,56.857595 q 1.38768,-1.513822 2.8384,-3.153791 1.51384,-1.639984 2.90151,-3.216871 1.38767,-1.639985 2.58611,-3.090725 1.26153,-1.45074 2.14458,-2.523042 h 11.16444 q -3.34302,3.847637 -6.55989,7.379883 -3.1538,3.469179 -6.93836,7.190653 1.89227,1.703051 3.91071,4.099944 2.01843,2.3338 3.9107,4.856841 1.89228,2.523042 3.46918,5.046068 1.5769,2.523042 2.64919,4.604548 H 223.9933 q -1.00923,-1.639969 -2.33381,-3.595328 -1.26151,-2.018425 -2.71227,-3.973782 -1.45073,-2.018425 -3.09071,-3.847636 -1.57689,-1.829196 -3.1538,-3.090711 V 78.051103 H 203.3044 V 30.618019 l 9.39831,-1.513821 z"
     style="font-style:normal;font-variant:normal;font-weight:bold;font-stretch:normal;font-size:42.66666794px;line-height:125%;font-family:Ubuntu;-inkscape-font-specification:'Ubuntu Bold';letter-spacing:0px;word-spacing:0px;fill:#000000;fill-opacity:1;stroke:none;stroke-width:0.26458335px;stroke-linecap:butt;stroke-linejoin:miter;stroke-opacity:1"
     id="path1818" />
  <path
     style="font-style:normal;font-variant:normal;font-weight:bold;font-stretch:normal;font-size:42.66666794px;line-height:125%;font-family:Ubuntu;-inkscape-font-specification:'Ubuntu Bold';letter-spacing:0px;word-spacing:0px;fill:#000000;fill-opacity:1;stroke:none;stroke-width:0.26458335px;stroke-linecap:butt;stroke-linejoin:miter;stroke-opacity:1"
     d="m 157.76378,61.399062 q 0,3.9107 -1.13537,7.190653 -1.13535,3.216872 -3.27994,5.550686 -2.14458,2.270733 -5.17223,3.532246 -2.96457,1.261513 -6.68605,1.261513 -3.6584,0 -6.68604,-1.261513 -2.96457,-1.261513 -5.10915,-3.532246 -2.14458,-2.333814 -3.34303,-5.550686 -1.19844,-3.279953 -1.19844,-7.190653 0,-3.910703 1.19844,-7.127575 1.26152,-3.216872 3.4061,-5.487604 2.20765,-2.270733 5.17223,-3.532261 3.02765,-1.261513 6.55989,-1.261513 3.59533,0 6.5599,1.261513 3.02765,1.261528 5.17223,3.532261 2.14458,2.270732 3.34302,5.487604 1.19844,3.216872 1.19844,7.127575 z"
     id="path1827" />
  <path
     style="font-style:normal;font-variant:normal;font-weight:bold;font-stretch:normal;font-size:42.66666794px;line-height:125%;font-family:Ubuntu;-inkscape-font-specification:'Ubuntu Bold';letter-spacing:0px;word-spacing:0px;fill:#ffffff;fill-opacity:1;stroke:none;stroke-width:0.26458335px;stroke-linecap:butt;stroke-linejoin:miter;stroke-opacity:1"
     d="m 148.17624,61.399062 q 0,-4.352239 -1.76612,-6.8122 -1.70306,-2.523042 -4.91993,-2.523042 -3.21687,0 -4.983,2.523042 -1.76611,2.459961 -1.76611,6.8122 0,4.352238 1.76611,6.938345 1.76613,2.523041 4.983,2.523041 3.21687,0 4.91993,-2.523041 1.76612,-2.586107 1.76612,-6.938345 z"
     id="path1821" />
  <path
     style="font-style:normal;font-variant:normal;font-weight:bold;font-stretch:normal;font-size:42.66666794px;line-height:125%;font-family:Ubuntu;-inkscape-font-specification:'Ubuntu Bold';letter-spacing:0px;word-spacing:0px;fill:#000000;fill-opacity:1;stroke:none;stroke-width:0.26458335px;stroke-linecap:butt;stroke-linejoin:miter;stroke-opacity:1"
     d="m 196.05077,61.399062 q 0,3.9107 -1.13537,7.190653 -1.13537,3.216872 -3.27995,5.550686 -2.14457,2.270733 -5.17222,3.532246 -2.96458,1.261513 -6.68604,1.261513 -3.65842,0 -6.68605,-1.261513 -2.96457,-1.261513 -5.10915,-3.532246 -2.14458,-2.333814 -3.34302,-5.550686 -1.19845,-3.279953 -1.19845,-7.190653 0,-3.910703 1.19845,-7.127575 1.26151,-3.216872 3.4061,-5.487604 2.20765,-2.270733 5.17222,-3.532261 3.02765,-1.261513 6.5599,-1.261513 3.59532,0 6.55988,1.261513 3.02764,1.261528 5.17223,3.532261 2.14458,2.270732 3.34302,5.487604 1.19845,3.216872 1.19845,7.127575 z"
     id="path1831" />
  <path
     style="font-style:normal;font-variant:normal;font-weight:bold;font-stretch:normal;font-size:42.66666794px;line-height:125%;font-family:Ubuntu;-inkscape-font-specification:'Ubuntu Bold';letter-spacing:0px;word-spacing:0px;fill:#ffffff;fill-opacity:1;stroke:none;stroke-width:0.26458335px;stroke-linecap:butt;stroke-linejoin:miter;stroke-opacity:1"
     d="m 186.46323,61.399062 q 0,-4.352239 -1.76612,-6.8122 -1.70306,-2.523042 -4.91992,-2.523042 -3.21688,0 -4.98302,2.523042 -1.7661,2.459961 -1.7661,6.8122 0,4.352238 1.7661,6.938345 1.76614,2.523041 4.98302,2.523041 3.21686,0 4.91992,-2.523041 1.76612,-2.586107 1.76612,-6.938345 z"
     id="path1823" />
  <rect
     transform="scale(-1)"
     style="opacity:1;vector-effect:none;fill:#000000;fill-opacity:1;stroke:none;stroke-width:3.47500038;stroke-linecap:butt;stroke-linejoin:miter;stroke-miterlimit:4;stroke-dasharray:none;stroke-dashoffset:0;stroke-opacity:0.16666667"
     id="rect1833"
     width="79.520912"
     height="9.3108759"
     x="-200.11032"
     y="-19.769232" />
</svg>
